<svg width="150" height="150" viewBox="0 0 150 150" fill="none" xmlns="http://www.w3.org/2000/svg">
<path d="M28.5563 54.1063C37.25 53.1375 46.9125 45.55 50.6312 37.525H100V69.4813C82.5125 69.4813 89.4625 92.1938 68.775 95.3938C56.35 97.3125 48.4125 91.0563 47.6437 83.3313C46.4062 70.9938 39.325 60.05 28.5563 54.1063ZM85.5687 43.4875H63.3125C62.1312 43.4875 61.1687 44.4438 61.1687 45.6313C61.1687 46.8125 62.125 47.7688 63.3125 47.7688H85.5687V43.4875ZM85.5687 51.5313H63.3125C62.1312 51.5313 61.1687 52.4875 61.1687 53.6688C61.1687 54.85 62.125 55.8063 63.3125 55.8063H85.5687V51.5313ZM85.5687 63.85V59.5688H63.3125C62.1312 59.5688 61.1687 60.525 61.1687 61.7125C61.1687 62.8938 62.125 63.85 63.3125 63.85H85.5687ZM66.0375 90.4563C83.625 88.7063 82.5625 68.3 62.8 71.35C49.1 73.475 50.0188 92.05 66.0375 90.4563ZM106.25 37.525V56.25H143.838C144.213 53.1813 146.025 49.9625 150 49.0188V37.525H106.25ZM131.25 32.9375H145.606V26.4938C145.606 25.3188 144.431 24.6188 143.319 25.2188L131.25 32.9375ZM38.6875 45.875C40.2313 44.7563 41.6813 43.5 43.075 42.0125C39.7688 40.1563 36.6562 38.925 32.5688 38.625C31.0625 38.5125 30.3875 40.3313 31.9 40.975C34.9375 42.275 37.0125 43.5563 38.6875 45.875ZM57.6437 78.9563C59.6812 82.5188 63.1125 86.1188 66.025 86.3563C66.9313 86.4313 67.55 85.5875 67.2 84.775C66.5312 83.2313 62.3375 80.1188 63.3125 75.075C60.2375 75.575 58.4187 77.1438 57.6437 78.9563ZM24.5813 59.2063C34.3125 64.2188 40.8125 73.9188 41.6937 84.8938C36.8375 86.9125 31.25 90.625 31.25 103.256V118.663C31.25 123.956 29.125 125 23.65 125H8.06876C1.88126 125 0 123.069 0 118.756C0 109.213 2.47501 94.8313 12.4812 80.7625C17.3687 73.8813 23.75 69.2 24.5813 59.2063ZM28.5187 84.0375C30.9625 84.0375 32.9375 82.0625 32.9375 79.6125C32.9375 77.1625 30.9625 75.1875 28.5187 75.1875C26.075 75.1875 24.0938 77.1625 24.0938 79.6125C24.0938 82.0625 26.0812 84.0375 28.5187 84.0375Z" fill="#EC609C"/>
</svg>
