<svg width="320" height="430" viewBox="0 0 286 428" fill="none" xmlns="http://www.w3.org/2000/svg">
<g clip-path="url(#clip0_121:417)">
<path d="M446 262.237L385.138 333.597L324.276 360.357L264.156 275.617L203.293 280.077L142.431 338.057L81.5689 338.057L20.7067 280.077L-40.1556 213.177L-100.276 231.017L-161.138 297.917L-222 320.217L-222 428L-161.138 428L-100.276 428L-40.1556 428L20.7067 428L81.5689 428L142.431 428L203.293 428L264.156 428L324.276 428L385.138 428L446 428L446 262.237Z" fill="#13171C"/>
<path d="M446 208.717L385.138 306.837L324.276 288.997L264.156 226.557L203.293 231.017L142.431 288.997L81.5689 271.157L20.7067 248.857L-40.1556 155.197L-100.276 173.037L-161.138 257.777L-222 280.077L-222 321.703L-161.138 299.403L-100.276 232.503L-40.1556 214.663L20.7067 281.563L81.5689 339.543L142.431 339.543L203.293 281.563L264.156 277.103L324.276 361.843L385.138 335.083L446 263.723L446 208.717Z" fill="#15191E"/>
<path d="M446 106.137L385.138 177.497L324.276 181.957L264.156 159.657L203.293 164.117L142.431 190.877L81.5689 173.037L20.7067 137.357L-40.1556 106.137L-100.276 115.057L-161.138 159.657L-222 177.497L-222 281.563L-161.138 259.263L-100.276 174.523L-40.1556 156.683L20.7067 250.343L81.5689 272.643L142.431 290.483L203.293 232.503L264.156 228.043L324.276 290.483L385.138 308.323L446 210.203L446 106.137Z" fill="#161B21"/>
<path d="M446 39.2366L385.138 123.977L324.276 128.437L264.156 101.677L203.293 115.057L142.431 101.677L81.5689 97.2166L20.7067 79.3766L-40.1556 48.1566L-100.276 57.0766L-161.138 88.2966L-222 97.2166L-222 178.983L-161.138 161.143L-100.276 116.543L-40.1556 107.623L20.7067 138.843L81.5689 174.523L142.431 192.363L203.293 165.603L264.156 161.143L324.276 183.443L385.138 178.983L446 107.623L446 39.2366Z" fill="#181D23"/>
<path d="M446 -18.7433L385.138 -18.7434L324.276 -18.7434L264.156 -18.7434L203.293 -18.7434L142.431 -18.7434L81.5689 -18.7434L20.7067 -18.7434L-40.1556 -18.7434L-100.276 -18.7434L-161.138 -18.7434L-222 -18.7434L-222 98.7033L-161.138 89.7833L-100.276 58.5633L-40.1556 49.6433L20.7067 80.8633L81.5689 98.7033L142.431 103.163L203.293 116.543L264.156 103.163L324.276 129.923L385.138 125.463L446 40.7233L446 -18.7433Z" fill="#1A1F26"/>
</g>
<g clip-path="url(#clip1_121:417)">
<path d="M433 343.25L423.288 347.75C413.647 352.25 394.224 361.25 374.871 372.5C355.518 383.75 336.095 397.25 316.884 404C297.602 410.75 278.462 410.75 259.18 407C239.97 403.25 220.546 395.75 201.193 393.5C181.841 391.25 162.417 394.25 143.064 397.25C123.712 400.25 104.288 403.25 84.9356 398.75C65.5829 394.25 46.1593 382.25 26.8067 377C7.45402 371.75 -11.9695 373.25 -31.1804 375.5C-50.4622 377.75 -69.6022 380.75 -88.884 382.25C-108.095 383.75 -127.518 383.75 -146.871 380C-166.224 376.25 -185.647 368.75 -195.288 365L-205 361.25L-205 443L-195.288 443C-185.647 443 -166.224 443 -146.871 443C-127.518 443 -108.095 443 -88.884 443C-69.6022 443 -50.4622 443 -31.1805 443C-11.9695 443 7.45401 443 26.8067 443C46.1593 443 65.5829 443 84.9355 443C104.288 443 123.712 443 143.064 443C162.417 443 181.841 443 201.193 443C220.546 443 239.97 443 259.18 443C278.462 443 297.602 443 316.884 443C336.095 443 355.518 443 374.871 443C394.224 443 413.647 443 423.288 443L433 443L433 343.25Z" fill="#39414D"/>
<path d="M433 311.75L423.288 310.25C413.647 308.75 394.224 305.75 374.871 314.75C355.518 323.75 336.095 344.75 316.884 355.25C297.602 365.75 278.462 365.75 259.18 364.25C239.97 362.75 220.546 359.75 201.193 353.75C181.841 347.75 162.417 338.75 143.064 336.5C123.712 334.25 104.288 338.75 84.9356 334.25C65.5829 329.75 46.1593 316.25 26.8067 313.25C7.45402 310.25 -11.9695 317.75 -31.1804 326.75C-50.4622 335.75 -69.6022 346.25 -88.884 344C-108.095 341.75 -127.518 326.75 -146.871 318.5C-166.224 310.25 -185.647 308.75 -195.288 308L-205 307.25L-205 362.75L-195.288 366.5C-185.647 370.25 -166.224 377.75 -146.871 381.5C-127.518 385.25 -108.095 385.25 -88.884 383.75C-69.6022 382.25 -50.4622 379.25 -31.1804 377C-11.9695 374.75 7.45401 373.25 26.8067 378.5C46.1593 383.75 65.5829 395.75 84.9355 400.25C104.288 404.75 123.712 401.75 143.064 398.75C162.417 395.75 181.841 392.75 201.193 395C220.546 397.25 239.97 404.75 259.18 408.5C278.462 412.25 297.602 412.25 316.884 405.5C336.095 398.75 355.518 385.25 374.871 374C394.224 362.75 413.647 353.75 423.288 349.25L433 344.75L433 311.75Z" fill="#293039"/>
<path d="M433 275.75L423.288 268.25C413.647 260.75 394.224 245.75 374.871 248C355.518 250.25 336.095 269.75 316.884 279.5C297.602 289.25 278.462 289.25 259.18 287C239.97 284.75 220.546 280.25 201.193 275.75C181.841 271.25 162.417 266.75 143.064 271.25C123.712 275.75 104.288 289.25 84.9356 290C65.5829 290.75 46.1593 278.75 26.8067 266C7.45402 253.25 -11.9695 239.75 -31.1804 242C-50.4622 244.25 -69.6022 262.25 -88.884 259.25C-108.095 256.25 -127.518 232.25 -146.871 222.5C-166.224 212.75 -185.647 217.25 -195.288 219.5L-205 221.75L-205 308.75L-195.288 309.5C-185.647 310.25 -166.224 311.75 -146.871 320C-127.518 328.25 -108.095 343.25 -88.884 345.5C-69.6022 347.75 -50.4622 337.25 -31.1804 328.25C-11.9695 319.25 7.45401 311.75 26.8067 314.75C46.1593 317.75 65.5829 331.25 84.9355 335.75C104.288 340.25 123.712 335.75 143.064 338C162.417 340.25 181.841 349.25 201.193 355.25C220.546 361.25 239.97 364.25 259.18 365.75C278.462 367.25 297.602 367.25 316.884 356.75C336.095 346.25 355.518 325.25 374.871 316.25C394.224 307.25 413.647 310.25 423.288 311.75L433 313.25L433 275.75Z" fill="#1A1F26"/>
<path d="M433 64.25L423.288 78.5C413.647 92.75 394.224 121.25 374.871 141.5C355.518 161.75 336.095 173.75 316.884 164.75C297.602 155.75 278.462 125.75 259.18 119C239.97 112.25 220.546 128.75 201.193 144.5C181.841 160.25 162.417 175.25 143.064 185C123.712 194.75 104.288 199.25 84.9356 178.25C65.5829 157.25 46.1593 110.75 26.8067 102.5C7.45403 94.2499 -11.9695 124.25 -31.1804 146C-50.4622 167.75 -69.6022 181.25 -88.884 179.75C-108.095 178.25 -127.518 161.75 -146.871 142.25C-166.224 122.75 -185.647 100.25 -195.288 88.9999L-205 77.7499L-205 223.25L-195.288 221C-185.647 218.75 -166.224 214.25 -146.871 224C-127.518 233.75 -108.095 257.75 -88.884 260.75C-69.6022 263.75 -50.4622 245.75 -31.1804 243.5C-11.9695 241.25 7.45401 254.75 26.8067 267.5C46.1593 280.25 65.5829 292.25 84.9355 291.5C104.288 290.75 123.712 277.25 143.064 272.75C162.417 268.25 181.841 272.75 201.193 277.25C220.546 281.75 239.97 286.25 259.18 288.5C278.462 290.75 297.602 290.75 316.884 281C336.095 271.25 355.518 251.75 374.871 249.5C394.224 247.25 413.647 262.25 423.288 269.75L433 277.25L433 64.25Z" fill="#171C22"/>
<path d="M433 -7.74997L423.288 -7.74997C413.647 -7.74997 394.224 -7.74997 374.871 -7.74997C355.518 -7.74998 336.095 -7.74998 316.884 -7.74998C297.602 -7.74998 278.462 -7.74998 259.18 -7.74998C239.97 -7.74999 220.546 -7.74999 201.193 -7.74999C181.841 -7.74999 162.417 -7.74999 143.064 -7.74999C123.712 -7.75 104.288 -7.75 84.9356 -7.75C65.5829 -7.75 46.1593 -7.75 26.8067 -7.75C7.45403 -7.75001 -11.9695 -7.75001 -31.1804 -7.75001C-50.4622 -7.75001 -69.6022 -7.75001 -88.884 -7.75002C-108.095 -7.75002 -127.518 -7.75002 -146.871 -7.75002C-166.224 -7.75002 -185.647 -7.75002 -195.288 -7.75002L-205 -7.75003L-205 79.25L-195.288 90.5C-185.647 101.75 -166.224 124.25 -146.871 143.75C-127.518 163.25 -108.095 179.75 -88.884 181.25C-69.6022 182.75 -50.4622 169.25 -31.1804 147.5C-11.9695 125.75 7.45402 95.75 26.8067 104C46.1593 112.25 65.5829 158.75 84.9355 179.75C104.288 200.75 123.712 196.25 143.064 186.5C162.417 176.75 181.841 161.75 201.193 146C220.546 130.25 239.97 113.75 259.18 120.5C278.462 127.25 297.602 157.25 316.884 166.25C336.095 175.25 355.518 163.25 374.871 143C394.224 122.75 413.647 94.25 423.288 80L433 65.75L433 -7.74997Z" fill="#15191E"/>
</g>
<defs>
<clipPath id="clip0_121:417">
<rect width="668" height="446" fill="white" transform="translate(446 428) rotate(-180)"/>
</clipPath>
<clipPath id="clip1_121:417">
<rect width="638" height="450" fill="white" transform="translate(433 443) rotate(-180)"/>
</clipPath>
</defs>
</svg>
