<svg width="320" height="415" viewBox="0 0 290 438" fill="none" xmlns="http://www.w3.org/2000/svg">
<path d="M480 -5H-178V433H480V-5Z" fill="#1A1F26"/>
<g clip-path="url(#clip0_119:351)">
<path d="M415 -36H-159V545.822H415V-36Z" fill="#1A1F26"/>
<path d="M250.199 299.721C258.617 328.287 247.137 362.882 225.006 379.597C202.876 396.312 170.157 395.216 148.345 378.158C126.533 361.101 115.627 328.082 123.6 300.063C131.636 272.114 158.486 249.096 186.038 248.891C213.654 248.685 241.844 271.155 250.199 299.721Z" stroke="#13171C" stroke-width="20"/>
<path d="M288.961 75.8547C296.104 97.7761 289.344 126.137 273.144 138.262C256.944 150.387 231.242 146.209 212.619 131.686C193.996 117.094 182.452 92.1588 188.128 72.361C193.868 52.5633 216.828 37.9033 238.831 38.2459C260.835 38.5884 281.818 54.0019 288.961 75.8547Z" stroke="#13171C" stroke-width="20"/>
<path d="M73.6295 179.642C80.1349 199.645 74.3949 225.54 58.3229 238.693C42.1871 251.846 15.7831 252.394 -1.30937 239.035C-18.4018 225.677 -26.1827 198.549 -19.486 178.272C-12.7894 158.063 8.38486 144.705 28.3473 145.116C48.3097 145.527 67.0604 159.639 73.6295 179.642Z" stroke="#13171C" stroke-width="20"/>
</g>
<defs>
<clipPath id="clip0_119:351">
<rect width="574" height="464" fill="white" transform="translate(-159 -36)"/>
</clipPath>
</defs>
</svg>
