<svg width="152" height="156" viewBox="0 0 152 156" fill="none" xmlns="http://www.w3.org/2000/svg">
<path fill-rule="evenodd" clip-rule="evenodd" d="M33.0435 45.5V0H118.957V65H152V156H0V45.5H33.0435ZM33.0435 149.5V123.5H26.4348V149.5H33.0435ZM85.913 123.5H66.087V149.5H85.913V123.5ZM125.565 123.5H118.957V149.5H125.565V123.5ZM138.783 78H118.957V117H132.174V143H138.783V78ZM105.739 13H46.2609V143H52.8696V110.5H99.1304V143H105.739V13ZM19.8261 143V117H33.0435V58.5H13.2174V143H19.8261ZM132.174 104H125.565V91H132.174V104ZM19.8261 91H26.4348V104H19.8261V91ZM72.6956 97.5H59.4783V84.5H72.6956V97.5ZM92.5217 97.5H79.3043V84.5H92.5217V97.5ZM26.4348 71.5V84.5H19.8261V71.5H26.4348ZM72.6956 78H59.4783V65H72.6956V78ZM92.5217 78H79.3043V65H92.5217V78ZM72.6956 58.5H59.4783V45.5H72.6956V58.5ZM92.5217 58.5H79.3043V45.5H92.5217V58.5ZM72.6956 39H59.4783V26H72.6956V39ZM92.5217 39H79.3043V26H92.5217V39Z" fill="#47E975"/>
</svg>
