<svg width="280" height="50" viewBox="0 0 336 53" fill="none" xmlns="http://www.w3.org/2000/svg">
<path d="M0 51.6948V1.43359H18.8246C22.5077 1.43359 25.9108 2.35365 29.0338 4.17238C32.1569 6.01251 34.6339 8.47315 36.4862 11.5757C38.3169 14.6782 39.2431 18.0589 39.2431 21.7178V31.3892C39.2431 35.048 38.3169 38.4287 36.4862 41.5313C34.6339 44.6338 32.1569 47.0945 29.0338 48.9346C25.9108 50.7747 22.5077 51.6734 18.8246 51.6734H0V51.6948Z" fill="white"/>
<path d="M56.065 48.0573C52.2527 44.7622 50.3789 39.8195 50.4435 33.2293H62.2897C62.2466 35.9681 63.065 38.065 64.7666 39.52C66.4681 40.975 68.8374 41.6811 71.8958 41.6811C74.4158 41.6811 76.3974 41.2745 77.862 40.4614C79.3266 39.6484 80.0373 38.3859 80.0373 36.717C80.0373 35.3262 79.305 34.3205 77.8189 33.6786C76.3327 33.0581 74.8681 32.6088 73.425 32.352C71.9604 32.0953 71.0774 31.9241 70.7327 31.8813C67.0066 31.1538 63.7758 30.2765 61.062 29.2495C58.3481 28.2224 56.065 26.6391 54.2343 24.5208C52.382 22.4025 51.4774 19.6209 51.4774 16.1546C51.4774 12.6883 52.4035 9.73557 54.2343 7.31772C56.065 4.87848 58.542 3.08115 61.622 1.86153C64.6589 0.599112 68.0189 0 71.6589 0C76.0743 0 79.8866 0.81308 83.0958 2.46064C86.3266 4.10819 88.8466 6.56883 90.6989 9.90674C91.625 11.4901 92.185 13.0307 92.3789 14.4857C92.5727 15.962 92.6589 17.3956 92.6589 18.7864H80.8127C80.8127 16.1974 80.102 14.2717 78.702 13.0521C77.302 11.8325 75.1266 11.2119 72.1543 11.2119C69.785 11.2119 67.9327 11.6185 66.6404 12.4316C65.3266 13.2446 64.6804 14.3573 64.6804 15.7481C64.6804 17.2887 65.5635 18.4227 67.2866 19.1502C69.0312 19.8777 71.2281 20.5196 73.8989 21.0973C78.2497 21.9532 81.6527 22.7876 84.1081 23.5793C86.5635 24.371 88.6743 25.7832 90.462 27.7945C92.2497 29.8058 93.1543 32.6516 93.1543 36.3105C93.1543 39.7767 92.185 42.7509 90.2466 45.2543C88.3081 47.7578 85.745 49.6621 82.5789 50.9887C79.4127 52.3153 75.9666 52.9786 72.305 52.9786C65.2835 53 59.8774 51.3524 56.065 48.0573Z" fill="white"/>
<path d="M336 0H162.141V53H336V0Z" fill="white"/>
<path d="M184.175 6.71861H197.012C202.375 6.71861 206.338 8.40896 208.944 11.8111C211.529 15.2132 212.821 20.113 212.821 26.4893C212.821 32.8656 211.529 37.7654 208.944 41.1675C206.359 44.5696 202.375 46.26 197.012 46.26H184.175V6.71861ZM196.452 39.5842C198.993 39.5842 200.867 38.7711 202.052 37.1449C203.236 35.5188 203.818 33.1651 203.818 30.0626V22.8732C203.818 19.8135 203.236 17.4812 202.052 15.8551C200.867 14.2289 199.015 13.4158 196.452 13.4158H192.639V39.5842H196.452Z" fill="#191F26"/>
<path d="M239.571 46.2814L237.051 36.7598H226.153L223.698 46.2814H215.018L225.808 6.71861H237.891L248.682 46.2814H239.571ZM231.861 14.935H231.408L227.531 29.8914H235.738L231.861 14.935Z" fill="#191F26"/>
<path d="M265.461 46.9447C262.123 46.9447 259.215 46.4098 256.738 45.3185C254.261 44.2273 252.28 42.7509 250.75 40.8894L255.704 35.4546C257.147 37.038 258.741 38.2148 260.464 38.9637C262.187 39.7126 263.954 40.0977 265.741 40.0977C267.787 40.0977 269.36 39.6484 270.415 38.7283C271.47 37.8082 272.009 36.503 272.009 34.7913C272.009 33.3791 271.6 32.3092 270.781 31.5818C269.963 30.8543 268.584 30.3407 266.646 30.0412L262.489 29.3565C258.914 28.7574 256.329 27.4522 254.735 25.4195C253.141 23.4082 252.344 20.9475 252.344 18.0375C252.344 14.2289 253.594 11.2761 256.114 9.17925C258.634 7.08236 262.144 6.03391 266.667 6.03391C269.747 6.03391 272.44 6.50464 274.701 7.44611C276.984 8.38757 278.837 9.64998 280.237 11.2761L275.39 16.6468C274.335 15.4699 273.064 14.5499 271.621 13.908C270.178 13.2447 268.541 12.9237 266.71 12.9237C262.877 12.9237 260.938 14.5071 260.938 17.6738C260.938 19.0432 261.369 20.0702 262.23 20.7549C263.092 21.4396 264.492 21.9532 266.43 22.2955L270.587 23.023C273.818 23.5793 276.317 24.799 278.061 26.6391C279.806 28.4792 280.689 30.9826 280.689 34.1066C280.689 35.9467 280.366 37.6585 279.72 39.2204C279.074 40.7824 278.104 42.1518 276.812 43.2858C275.52 44.4413 273.926 45.3399 272.052 45.9818C270.178 46.6237 267.981 46.9447 265.461 46.9447Z" fill="#191F26"/>
<path d="M305.329 29.7202H295.292V46.26H286.676V6.71861H295.292V22.7449H305.329V6.71861H313.944V46.2814H305.329V29.7202Z" fill="#191F26"/>
<path d="M149.563 51.6948H101.898L125.72 0.363743L149.563 51.6948ZM106.098 49.0202H145.342L125.72 6.71861L106.098 49.0202Z" fill="white"/>
<path d="M145.342 49.0202H106.099L125.72 6.69721L145.342 49.0202Z" fill="white"/>
</svg>
