<svg width="50" height="50" viewBox="0 0 197 190" fill="none" xmlns="http://www.w3.org/2000/svg">
<path d="M98.5 15.8333C143.761 15.8333 180.583 51.3475 180.583 95C180.583 138.652 143.761 174.167 98.5 174.167C53.2392 174.167 16.4167 138.652 16.4167 95C16.4167 51.3475 53.2392 15.8333 98.5 15.8333ZM98.5 0C44.1034 0 0 42.5363 0 95C0 147.464 44.1034 190 98.5 190C152.897 190 197 147.464 197 95C197 42.5363 152.897 0 98.5 0ZM98.5 47.5C71.3058 47.5 49.25 68.7642 49.25 95C49.25 115.987 63.3601 133.792 82.937 140.07C85.3995 140.513 86.1875 139.04 86.1875 137.782V128.939C72.4878 131.813 69.6313 123.342 69.6313 123.342C67.3986 117.855 64.1645 116.391 64.1645 116.391C59.6992 113.438 64.5011 113.501 64.5011 113.501C69.4507 113.834 72.0527 118.402 72.0527 118.402C76.4442 125.661 83.569 123.563 86.3845 122.352C86.8277 119.28 88.1 117.19 89.5119 116.003C78.5702 114.8 67.0785 110.722 67.0785 92.53C67.0785 87.3446 68.9992 83.1092 72.1512 79.7842C71.6423 78.5729 69.9514 73.7358 72.6273 67.1967C72.6273 67.1967 76.7643 65.9221 86.1711 72.0654C90.1029 71.0125 94.3137 70.49 98.5 70.4662C102.686 70.4821 106.897 71.0125 110.837 72.0654C120.244 65.9221 124.364 67.1967 124.364 67.1967C127.049 73.7358 125.358 78.5729 124.857 79.7683C128.017 83.0933 129.921 87.3287 129.921 92.5142C129.921 110.762 118.397 114.776 107.431 115.947C109.204 117.42 110.812 120.31 110.812 124.743V137.774C110.812 139.04 111.6 140.521 114.096 140.054C133.656 133.776 147.75 115.979 147.75 95C147.75 68.7642 125.694 47.5 98.5 47.5V47.5Z" fill="#7F65F8"/>
</svg>
