<svg width="50" height="54" viewBox="0 0 180 174" fill="none" xmlns="http://www.w3.org/2000/svg">
<g clip-path="url(#clip0_145:4)">
<path d="M90 14.645C131.355 14.645 165 47.1685 165 87.145C165 127.122 131.355 159.645 90 159.645C48.645 159.645 15 127.122 15 87.145C15 47.1685 48.645 14.645 90 14.645V14.645ZM90 0.14502C40.2975 0.14502 0 39.0993 0 87.145C0 135.191 40.2975 174.145 90 174.145C139.702 174.145 180 135.191 180 87.145C180 39.0993 139.702 0.14502 90 0.14502V0.14502ZM90 91.1325L45.06 58H134.932L90 91.1325ZM90 100.471L45 66.9103V116H135V66.9103L90 100.471V100.471Z" fill="#7F65F8"/>
</g>
<defs>
<clipPath id="clip0_145:4">
<rect width="180" height="174" fill="white"/>
</clipPath>
</defs>
</svg>
