<svg width="76" height="76" viewBox="0 0 76 76" fill="none" xmlns="http://www.w3.org/2000/svg">
<g filter="url(#filter0_d_104:313)">
<circle cx="38" cy="34" r="34" fill="white"/>
<path d="M63 37.3667V30.6333C59.5604 29.4104 57.3875 29.0667 56.2937 26.4271V26.425C55.1958 23.7771 56.5021 21.9792 58.0583 18.7021L53.2979 13.9417C50.0458 15.4875 48.2292 16.8063 45.575 15.7063H45.5729C42.9292 14.6104 42.5833 12.4229 41.3667 9H34.6333C33.4208 12.4062 33.0729 14.6083 30.4271 15.7063H30.425C27.7771 16.8063 25.9833 15.5021 22.7021 13.9417L17.9417 18.7021C19.4937 21.9688 20.8063 23.7729 19.7063 26.425C18.6083 29.0729 16.4062 29.4208 13 30.6333V37.3667C16.4 38.575 18.6083 38.9271 19.7063 41.5729C20.8104 44.2437 19.4687 46.0854 17.9417 49.2958L22.7021 54.0583C25.9563 52.5104 27.7729 51.1937 30.425 52.2937H30.4271C33.0729 53.3896 33.4187 55.5833 34.6333 59H41.3667C42.5792 55.5917 42.9292 53.3958 45.5896 52.2875H45.5917C48.2208 51.1958 50.0083 52.4979 53.2958 54.0604L58.0563 49.2979C56.5062 46.0417 55.1917 44.2292 56.2896 41.5771C57.3875 38.9292 59.5979 38.5771 63 37.3667ZM38 42.3333C33.3979 42.3333 29.6667 38.6021 29.6667 34C29.6667 29.3979 33.3979 25.6667 38 25.6667C42.6021 25.6667 46.3333 29.3979 46.3333 34C46.3333 38.6021 42.6021 42.3333 38 42.3333Z" fill="#1A1F26"/>
</g>
<defs>
<filter id="filter0_d_104:313" x="0" y="0" width="76" height="76" filterUnits="userSpaceOnUse" color-interpolation-filters="sRGB">
<feFlood flood-opacity="0" result="BackgroundImageFix"/>
<feColorMatrix in="SourceAlpha" type="matrix" values="0 0 0 0 0 0 0 0 0 0 0 0 0 0 0 0 0 0 127 0" result="hardAlpha"/>
<feOffset dy="4"/>
<feGaussianBlur stdDeviation="2"/>
<feComposite in2="hardAlpha" operator="out"/>
<feColorMatrix type="matrix" values="0 0 0 0 0 0 0 0 0 0 0 0 0 0 0 0 0 0 0.25 0"/>
<feBlend mode="normal" in2="BackgroundImageFix" result="effect1_dropShadow_104:313"/>
<feBlend mode="normal" in="SourceGraphic" in2="effect1_dropShadow_104:313" result="shape"/>
</filter>
</defs>
</svg>
