<svg width="310" height="430" viewBox="0 0 286 428" fill="none" xmlns="http://www.w3.org/2000/svg">
<path d="M480 -5H-178V433H480V-5Z" fill="#1A1F26"/>
<path d="M480 351.291C434.671 345.597 389.342 339.903 343.794 324.281C298.319 308.659 252.698 283.109 230.326 245.295C207.881 207.554 208.758 157.476 194.94 113.895C181.122 70.314 152.609 33.157 124.168 -4H480V351.291Z" fill="#13171C"/>
<path d="M-178 78.709C-143.638 112.07 -109.349 145.504 -63.2887 157.476C-17.2287 169.521 40.456 160.104 73.6485 182.734C106.768 205.364 115.395 259.968 128.628 307.199C141.934 354.357 159.92 394.215 177.832 434H-178V78.709Z" fill="#13171C"/>
</svg>
